<svg width="16" height="16" viewBox="0 0 16 16" fill="none" xmlns="http://www.w3.org/2000/svg">
<path d="M5.94365 13.78C5.81698 13.78 5.69031 13.7333 5.59031 13.6333C5.39698 13.44 5.39698 13.12 5.59031 12.9267L9.93698 8.58001C10.257 8.26001 10.257 7.74001 9.93698 7.42001L5.59031 3.07335C5.39698 2.88001 5.39698 2.56001 5.59031 2.36668C5.78365 2.17335 6.10365 2.17335 6.29698 2.36668L10.6436 6.71335C10.9836 7.05335 11.177 7.51335 11.177 8.00001C11.177 8.48668 10.9903 8.94668 10.6436 9.28668L6.29698 13.6333C6.19698 13.7267 6.07031 13.78 5.94365 13.78Z" fill="white"/>
</svg>
