<svg width="24" height="24" viewBox="0 0 24 24" fill="none" xmlns="http://www.w3.org/2000/svg">
<path d="M9.1625 11.62C9.1325 11.62 9.1125 11.62 9.0825 11.62C9.0325 11.61 8.9625 11.61 8.9025 11.62C6.0025 11.53 3.8125 9.25 3.8125 6.44C3.8125 3.58 6.1425 1.25 9.0025 1.25C11.8625 1.25 14.1925 3.58 14.1925 6.44C14.1825 9.25 11.9825 11.53 9.1925 11.62C9.1825 11.62 9.1725 11.62 9.1625 11.62ZM9.0025 2.75C6.9725 2.75 5.3125 4.41 5.3125 6.44C5.3125 8.44 6.8725 10.05 8.8625 10.12C8.9225 10.11 9.0525 10.11 9.1825 10.12C11.1425 10.03 12.6825 8.42 12.6925 6.44C12.6925 4.41 11.0325 2.75 9.0025 2.75Z" fill="white"/>
<path d="M16.5423 11.75C16.5123 11.75 16.4823 11.75 16.4523 11.74C16.0423 11.78 15.6223 11.49 15.5823 11.08C15.5423 10.67 15.7923 10.3 16.2023 10.25C16.3223 10.24 16.4523 10.24 16.5623 10.24C18.0223 10.16 19.1623 8.96 19.1623 7.49C19.1623 5.97 17.9323 4.74 16.4123 4.74C16.0023 4.75 15.6623 4.41 15.6623 4C15.6623 3.59 16.0023 3.25 16.4123 3.25C18.7523 3.25 20.6623 5.16 20.6623 7.5C20.6623 9.8 18.8623 11.66 16.5723 11.75C16.5623 11.75 16.5523 11.75 16.5423 11.75Z" fill="white"/>
<path d="M9.17156 22.55C7.21156 22.55 5.24156 22.05 3.75156 21.05C2.36156 20.13 1.60156 18.87 1.60156 17.5C1.60156 16.13 2.36156 14.86 3.75156 13.93C6.75156 11.94 11.6116 11.94 14.5916 13.93C15.9716 14.85 16.7416 16.11 16.7416 17.48C16.7416 18.85 15.9816 20.12 14.5916 21.05C13.0916 22.05 11.1316 22.55 9.17156 22.55ZM4.58156 15.19C3.62156 15.83 3.10156 16.65 3.10156 17.51C3.10156 18.36 3.63156 19.18 4.58156 19.81C7.07156 21.48 11.2716 21.48 13.7616 19.81C14.7216 19.17 15.2416 18.35 15.2416 17.49C15.2416 16.64 14.7116 15.82 13.7616 15.19C11.2716 13.53 7.07156 13.53 4.58156 15.19Z" fill="white"/>
<path d="M18.3382 20.75C17.9882 20.75 17.6782 20.51 17.6082 20.15C17.5282 19.74 17.7882 19.35 18.1882 19.26C18.8182 19.13 19.3982 18.88 19.8482 18.53C20.4182 18.1 20.7282 17.56 20.7282 16.99C20.7282 16.42 20.4182 15.88 19.8582 15.46C19.4182 15.12 18.8682 14.88 18.2182 14.73C17.8182 14.64 17.5582 14.24 17.6482 13.83C17.7382 13.43 18.1382 13.17 18.5482 13.26C19.4082 13.45 20.1582 13.79 20.7682 14.26C21.6982 14.96 22.2282 15.95 22.2282 16.99C22.2282 18.03 21.6882 19.02 20.7582 19.73C20.1382 20.21 19.3582 20.56 18.4982 20.73C18.4382 20.75 18.3882 20.75 18.3382 20.75Z" fill="white"/>
</svg>
