<svg width="24" height="24" viewBox="0 0 24 24" fill="none" xmlns="http://www.w3.org/2000/svg">
<path d="M21 22.75H3C2.59 22.75 2.25 22.41 2.25 22C2.25 21.59 2.59 21.25 3 21.25H21C21.41 21.25 21.75 21.59 21.75 22C21.75 22.41 21.41 22.75 21 22.75Z" fill="white"/>
<path d="M5.59998 19.7499H4C3.04 19.7499 2.25 18.9599 2.25 17.9999V9.37988C2.25 8.41988 3.04 7.62988 4 7.62988H5.59998C6.55998 7.62988 7.34998 8.41988 7.34998 9.37988V17.9999C7.34998 18.9599 6.55998 19.7499 5.59998 19.7499ZM4 9.11987C3.86 9.11987 3.75 9.22987 3.75 9.36987V17.9999C3.75 18.1399 3.86 18.2499 4 18.2499H5.59998C5.73998 18.2499 5.84998 18.1399 5.84998 17.9999V9.37988C5.84998 9.23988 5.73998 9.12988 5.59998 9.12988H4V9.11987Z" fill="white"/>
<path d="M12.8031 19.7499H11.2031C10.2431 19.7499 9.45312 18.9599 9.45312 17.9999V6.18994C9.45312 5.22994 10.2431 4.43994 11.2031 4.43994H12.8031C13.7631 4.43994 14.5531 5.22994 14.5531 6.18994V17.9999C14.5531 18.9599 13.7631 19.7499 12.8031 19.7499ZM11.2031 5.93994C11.0631 5.93994 10.9531 6.04994 10.9531 6.18994V17.9999C10.9531 18.1399 11.0631 18.2499 11.2031 18.2499H12.8031C12.9431 18.2499 13.0531 18.1399 13.0531 17.9999V6.18994C13.0531 6.04994 12.9431 5.93994 12.8031 5.93994H11.2031Z" fill="white"/>
<path d="M19.9984 19.75H18.3984C17.4384 19.75 16.6484 18.96 16.6484 18V3C16.6484 2.04 17.4384 1.25 18.3984 1.25H19.9984C20.9584 1.25 21.7484 2.04 21.7484 3V18C21.7484 18.96 20.9584 19.75 19.9984 19.75ZM18.3984 2.75C18.2584 2.75 18.1484 2.86 18.1484 3V18C18.1484 18.14 18.2584 18.25 18.3984 18.25H19.9984C20.1384 18.25 20.2484 18.14 20.2484 18V3C20.2484 2.86 20.1384 2.75 19.9984 2.75H18.3984Z" fill="white"/>
</svg>
