<svg width="24" height="24" viewBox="0 0 24 24" fill="none" xmlns="http://www.w3.org/2000/svg">
<path d="M5.57166 22.6998C3.23166 22.6998 1.25166 20.7198 1.25166 18.3798V12.2198C1.20166 9.2998 2.28166 6.5498 4.30166 4.4898C6.32166 2.4398 9.03166 1.2998 11.9517 1.2998C17.9117 1.2998 22.7517 6.14981 22.7517 12.0998V18.2598C22.7517 20.6398 20.8117 22.5798 18.4317 22.5798C16.0917 22.5798 14.1117 20.5998 14.1117 18.2598V15.4498C14.1117 13.9998 15.2517 12.8598 16.7017 12.8598C18.1517 12.8598 19.2917 13.9998 19.2917 15.4498V18.4798C19.2917 18.8898 18.9517 19.2298 18.5417 19.2298C18.1317 19.2298 17.7917 18.8898 17.7917 18.4798V15.4498C17.7917 14.7698 17.2417 14.3598 16.7017 14.3598C16.0217 14.3598 15.6117 14.9098 15.6117 15.4498V18.2598C15.6117 19.7898 16.9017 21.0798 18.4317 21.0798C19.9617 21.0798 21.2517 19.7898 21.2517 18.2598V12.0998C21.2517 6.9698 17.0817 2.7998 11.9517 2.7998C9.44166 2.7998 7.11166 3.7698 5.37166 5.5398C3.63166 7.3098 2.70166 9.6798 2.75166 12.1998V18.3798C2.75166 19.9098 4.04166 21.1998 5.57166 21.1998C7.10166 21.1998 8.39166 19.9098 8.39166 18.3798V15.5698C8.39166 14.8898 7.84166 14.4798 7.30166 14.4798C6.62166 14.4798 6.21166 15.0298 6.21166 15.5698V18.4898C6.21166 18.8998 5.87166 19.2398 5.46166 19.2398C5.05166 19.2398 4.71166 18.8998 4.71166 18.4898V15.5698C4.71166 14.1198 5.85166 12.9798 7.30166 12.9798C8.75166 12.9798 9.89166 14.1198 9.89166 15.5698V18.3798C9.89166 20.7198 7.91166 22.6998 5.57166 22.6998Z" fill="#333333"/>
</svg>
