<svg width="20" height="20" viewBox="0 0 20 20" fill="none" xmlns="http://www.w3.org/2000/svg">
<path d="M8.75749 3.81504C7.88151 3.53147 6.92924 3.92591 6.51034 4.74584L6.00672 5.73158C5.94689 5.8487 5.85163 5.94396 5.73451 6.00379L4.74877 6.50741C3.92884 6.92631 3.5344 7.87858 3.81797 8.75456L4.15888 9.80768C4.19939 9.93281 4.19939 10.0676 4.15888 10.1927L3.81797 11.2458C3.5344 12.1218 3.92884 13.0741 4.74877 13.493L5.73451 13.9966C5.85163 14.0564 5.94689 14.1517 6.00672 14.2688L6.51034 15.2546C6.92924 16.0745 7.88151 16.4689 8.75749 16.1854L9.81061 15.8444C9.93574 15.8039 10.0705 15.8039 10.1956 15.8444L11.2487 16.1854C12.1247 16.4689 13.077 16.0745 13.4959 15.2546L13.9995 14.2688C14.0594 14.1517 14.1546 14.0564 14.2717 13.9966L15.2575 13.493C16.0774 13.0741 16.4719 12.1218 16.1883 11.2458L15.8474 10.1927C15.8069 10.0676 15.8069 9.93281 15.8474 9.80768L16.1883 8.75456C16.4719 7.87858 16.0774 6.92631 15.2575 6.50741L14.2717 6.00379C14.1546 5.94396 14.0594 5.8487 13.9995 5.73158L13.4959 4.74584C13.077 3.92591 12.1247 3.53147 11.2487 3.81504L10.1956 4.15595C10.0705 4.19645 9.93574 4.19646 9.81061 4.15595L8.75749 3.81504ZM6.72797 9.84849L7.61186 8.96456L9.37961 10.7324L12.9152 7.19684L13.799 8.08072L9.37961 12.5001L6.72797 9.84849Z" fill="#186ADE"/>
</svg>
