<svg width="24" height="24" viewBox="0 0 24 24" fill="none" xmlns="http://www.w3.org/2000/svg">
<path fill-rule="evenodd" clip-rule="evenodd" d="M4.92929 3.81818C4.63461 3.81818 4.35199 3.93525 4.14362 4.14362C3.93525 4.35199 3.81818 4.63461 3.81818 4.92929V19.0707C3.81818 19.3654 3.93524 19.648 4.14362 19.8564C4.35199 20.0648 4.63461 20.1818 4.92929 20.1818H8.9697C9.47177 20.1818 9.87879 20.5888 9.87879 21.0909C9.87879 21.593 9.47177 22 8.9697 22H4.92929C4.15239 22 3.40732 21.6914 2.85797 21.142C2.30862 20.5927 2 19.8476 2 19.0707V4.92929C2 4.1524 2.30862 3.40732 2.85797 2.85797C3.40732 2.30862 4.1524 2 4.92929 2H8.9697C9.47177 2 9.87879 2.40701 9.87879 2.90909C9.87879 3.41117 9.47177 3.81818 8.9697 3.81818H4.92929ZM15.3976 6.30667C15.7526 5.95165 16.3282 5.95165 16.6832 6.30667L21.7337 11.3572C21.9042 11.5277 22 11.7589 22 12C22 12.2411 21.9042 12.4723 21.7337 12.6428L16.6832 17.6933C16.3282 18.0484 15.7526 18.0484 15.3976 17.6933C15.0426 17.3383 15.0426 16.7627 15.3976 16.4077L18.8962 12.9091H8.9697C8.46762 12.9091 8.06061 12.5021 8.06061 12C8.06061 11.4979 8.46762 11.0909 8.9697 11.0909H18.8962L15.3976 7.59232C15.0426 7.2373 15.0426 6.66169 15.3976 6.30667Z" fill="#D91F11"/>
</svg>
