<svg width="24" height="24" viewBox="0 0 24 24" fill="none" xmlns="http://www.w3.org/2000/svg">
<path fill-rule="evenodd" clip-rule="evenodd" d="M8 8.75C7.44771 8.75 7 9.19772 7 9.75C7 10.3023 7.44771 10.75 8 10.75C8.55229 10.75 9 10.3023 9 9.75C9 9.19772 8.55229 8.75 8 8.75ZM5.5 9.75C5.5 8.36929 6.61929 7.25 8 7.25C9.38071 7.25 10.5 8.36929 10.5 9.75C10.5 11.1307 9.38071 12.25 8 12.25C6.61929 12.25 5.5 11.1307 5.5 9.75Z" fill="#333333"/>
<path fill-rule="evenodd" clip-rule="evenodd" d="M5.42198 13.5335C6.13036 12.9887 7.05597 12.75 8 12.75C8.94403 12.75 9.86964 12.9887 10.578 13.5335C11.3097 14.0963 11.75 14.943 11.75 16C11.75 16.4142 11.4142 16.75 11 16.75C10.5858 16.75 10.25 16.4142 10.25 16C10.25 15.3984 10.018 14.9951 9.66355 14.7225C9.28577 14.432 8.71139 14.25 8 14.25C7.28861 14.25 6.71423 14.432 6.33645 14.7225C5.98203 14.9951 5.75 15.3984 5.75 16C5.75 16.4142 5.41421 16.75 5 16.75C4.58579 16.75 4.25 16.4142 4.25 16C4.25 14.943 4.69027 14.0963 5.42198 13.5335Z" fill="#333333"/>
<path fill-rule="evenodd" clip-rule="evenodd" d="M1.25 8C1.25 5.92893 2.92893 4.25 5 4.25H19C21.0711 4.25 22.75 5.92893 22.75 8V16C22.75 18.0711 21.0711 19.75 19 19.75H5C2.92893 19.75 1.25 18.0711 1.25 16V8ZM5 5.75C3.75736 5.75 2.75 6.75736 2.75 8V16C2.75 17.2426 3.75736 18.25 5 18.25H19C20.2426 18.25 21.25 17.2426 21.25 16V8C21.25 6.75736 20.2426 5.75 19 5.75H5Z" fill="#333333"/>
<path fill-rule="evenodd" clip-rule="evenodd" d="M13.75 14.5C13.75 14.0858 14.0858 13.75 14.5 13.75H19.5C19.9142 13.75 20.25 14.0858 20.25 14.5C20.25 14.9142 19.9142 15.25 19.5 15.25H14.5C14.0858 15.25 13.75 14.9142 13.75 14.5Z" fill="#333333"/>
<path fill-rule="evenodd" clip-rule="evenodd" d="M13.75 10.5C13.75 10.0858 14.0858 9.75 14.5 9.75H19.5C19.9142 9.75 20.25 10.0858 20.25 10.5C20.25 10.9142 19.9142 11.25 19.5 11.25H14.5C14.0858 11.25 13.75 10.9142 13.75 10.5Z" fill="#333333"/>
</svg>
