<svg width="20" height="21" viewBox="0 0 20 21" fill="none" xmlns="http://www.w3.org/2000/svg">
<path d="M10.7327 17.8834H5.67435C2.71602 17.8834 1.66602 15.8084 1.66602 13.875V7.12503C1.66602 4.2417 2.79102 3.1167 5.67435 3.1167H10.7327C13.616 3.1167 14.741 4.2417 14.741 7.12503V13.875C14.741 16.7584 13.616 17.8834 10.7327 17.8834ZM5.67435 4.38337C3.49935 4.38337 2.93268 4.95003 2.93268 7.12503V13.875C2.93268 14.9 3.29102 16.6167 5.67435 16.6167H10.7327C12.9077 16.6167 13.4743 16.05 13.4743 13.875V7.12503C13.4743 4.95003 12.9077 4.38337 10.7327 4.38337H5.67435Z" fill="#333333"/>
<path d="M17.3158 15.5916C16.9574 15.5916 16.4991 15.4749 15.9741 15.1082L13.7491 13.5499C13.5824 13.4332 13.4824 13.2416 13.4824 13.0332V7.96658C13.4824 7.75825 13.5824 7.56658 13.7491 7.44991L15.9741 5.89158C16.9658 5.19991 17.6908 5.39991 18.0324 5.57491C18.3741 5.75825 18.9574 6.23325 18.9574 7.44158V13.5499C18.9574 14.7582 18.3741 15.2416 18.0324 15.4166C17.8741 15.5082 17.6241 15.5916 17.3158 15.5916ZM14.7408 12.6999L16.6991 14.0666C17.0741 14.3249 17.3408 14.3499 17.4491 14.2916C17.5658 14.2332 17.6908 13.9999 17.6908 13.5499V7.44991C17.6908 6.99158 17.5574 6.76658 17.4491 6.70825C17.3408 6.64991 17.0741 6.67491 16.6991 6.93325L14.7408 8.29991V12.6999Z" fill="#333333"/>
<path d="M9.58398 10.2917C8.55065 10.2917 7.70898 9.45008 7.70898 8.41675C7.70898 7.38341 8.55065 6.54175 9.58398 6.54175C10.6173 6.54175 11.459 7.38341 11.459 8.41675C11.459 9.45008 10.6173 10.2917 9.58398 10.2917ZM9.58398 7.79175C9.24232 7.79175 8.95898 8.07508 8.95898 8.41675C8.95898 8.75841 9.24232 9.04175 9.58398 9.04175C9.92565 9.04175 10.209 8.75841 10.209 8.41675C10.209 8.07508 9.92565 7.79175 9.58398 7.79175Z" fill="#333333"/>
</svg>
