<svg width="20" height="20" viewBox="0 0 20 20" fill="none" xmlns="http://www.w3.org/2000/svg">
<path d="M13.9 17.3583C13.8916 17.3583 13.875 17.3583 13.8666 17.3583H4.62495C2.17495 17.1833 1.07495 15.3 1.07495 13.6167C1.07495 12.1167 1.94995 10.45 3.85828 9.99165C3.32495 7.90832 3.77495 5.94998 5.13328 4.53332C6.67495 2.91665 9.14995 2.27498 11.275 2.93332C13.225 3.53332 14.6 5.14165 15.1 7.37498C16.8083 7.75832 18.1666 9.04998 18.7166 10.8333C19.3083 12.775 18.775 14.7667 17.3166 16.0417C16.3833 16.8833 15.1666 17.3583 13.9 17.3583ZM4.64162 11.125C4.63328 11.125 4.63328 11.125 4.62495 11.125C3.04162 11.2417 2.31662 12.4583 2.31662 13.6167C2.31662 14.775 3.04162 15.9917 4.65828 16.1083H13.8583C14.825 16.0917 15.75 15.7583 16.4666 15.1083C17.7666 13.9667 17.8583 12.3417 17.5083 11.2C17.1583 10.05 16.1833 8.74998 14.4833 8.53332C14.2083 8.49998 13.9916 8.29165 13.9416 8.01665C13.6083 6.01665 12.525 4.63332 10.9 4.13332C9.20828 3.61665 7.25828 4.12498 6.03328 5.39998C4.92495 6.55832 4.60828 8.15832 5.12495 9.91665C5.54995 9.97498 5.95828 10.1 6.33328 10.2917C6.64162 10.45 6.76662 10.825 6.60828 11.1333C6.44995 11.4417 6.07495 11.5667 5.76662 11.4083C5.42495 11.2333 5.04995 11.1417 4.67495 11.1417C4.66662 11.125 4.65828 11.125 4.64162 11.125Z" fill="#8A8A8A"/>
<path d="M13.2084 8.8912C12.975 8.8912 12.7584 8.7662 12.65 8.5412C12.4917 8.23287 12.625 7.85787 12.9334 7.69953C13.45 7.4412 14.025 7.29953 14.5917 7.2912C14.925 7.28287 15.225 7.55787 15.225 7.90787C15.2334 8.24953 14.9584 8.5412 14.6084 8.5412C14.225 8.54953 13.8334 8.6412 13.4834 8.8162C13.3917 8.8662 13.3 8.8912 13.2084 8.8912Z" fill="#8A8A8A"/>
</svg>
